<svg id="Layer_1" data-name="Layer 1" xmlns="http://www.w3.org/2000/svg" viewBox="0 0 328.94 328.94"><defs><style>.cls-1{fill:#30343b;}.cls-2{fill:#fff;}</style></defs><circle class="cls-1" cx="164.47" cy="164.47" r="164.47"/><path class="cls-2" d="M260.81,135.16a19.09,19.09,0,0,0-6.53,1.17l-.09,0a20.16,20.16,0,0,0-2,.85h0a19.18,19.18,0,0,0-6.58,5.44l-.09.12c-.4.53-.77,1.08-1.12,1.65a1,1,0,0,0-.08.14,19,19,0,0,0-2.69,9.74v88.26h22.2a4,4,0,0,0,3.95-3.95V135.16Z"/><path class="cls-2" d="M179.21,72.32c-32.71,0-60.77,19.26-72.32,46.46-31.5,4.44-55.75,30.36-55.75,61.58,0,34.32,29.31,62.25,65.34,62.25h54.16v-.08a3.94,3.94,0,0,0,3.17-3.86v-50h-7a19.15,19.15,0,0,0-19.15,19.15v6.58H116.48c-20.44,0-37.08-15.25-37.08-34,0-18,15.38-32.8,34.74-33.92h15.35c0-25.28,22.31-45.86,49.72-45.86,21.44,0,39.75,12.58,46.72,30.16a42.2,42.2,0,0,1,23.29-16.91C236.5,89.27,209.9,72.32,179.21,72.32Z"/><path class="cls-2" d="M194.64,185.42v57.2h22.2a4,4,0,0,0,3.95-3.94V166.27h-7A19.15,19.15,0,0,0,194.64,185.42Z"/></svg>